<?xml version="1.0" encoding="UTF-8"?>
<svg width="400" height="300" viewBox="0 0 400 300" fill="none" xmlns="http://www.w3.org/2000/svg">
  <!-- Background with subtle gradient -->
  <rect width="400" height="300" rx="20" fill="url(#paint0_linear)" />
  
  <!-- Fullstack Designer / Design Engineer illustration -->
  <!-- Code + Design Element -->
  <rect x="100" y="70" width="200" height="160" rx="8" fill="#FFFFFF" stroke="#E0E0E0" stroke-width="2"/>
  
  <!-- Design elements on the left -->
  <rect x="110" y="90" width="80" height="120" rx="4" fill="#F5F5F7"/>
  <circle cx="150" y="120" r="20" fill="#FF2D55" opacity="0.5"/>
  <rect x="130" y="150" width="40" height="5" rx="2" fill="#333333"/>
  <rect x="130" y="160" width="40" height="5" rx="2" fill="#333333"/>
  <rect x="130" y="170" width="25" height="5" rx="2" fill="#333333"/>
  <rect x="125" y="185" width="50" height="15" rx="7.5" fill="#007AFF"/>
  <text x="140" y="196" font-family="Arial, sans-serif" font-size="8" fill="white">Design</text>
  
  <!-- Code elements on the right -->
  <rect x="200" y="90" width="90" height="120" rx="4" fill="#F8F8F8"/>
  <rect x="210" y="100" width="70" height="8" rx="2" fill="#5E5CE6" opacity="0.7"/>
  <rect x="210" y="115" width="55" height="8" rx="2" fill="#333333" opacity="0.7"/>
  <rect x="220" y="130" width="50" height="8" rx="2" fill="#333333" opacity="0.7"/>
  <rect x="220" y="145" width="40" height="8" rx="2" fill="#333333" opacity="0.7"/>
  <rect x="210" y="160" width="60" height="8" rx="2" fill="#FF9500" opacity="0.7"/>
  <rect x="210" y="175" width="45" height="8" rx="2" fill="#5E5CE6" opacity="0.7"/>
  <rect x="215" y="195" width="60" height="10" rx="5" fill="#5E5CE6"/>
  <text x="225" y="203" font-family="Arial, sans-serif" font-size="8" fill="white">Code</text>
  
  <!-- Connecting elements -->
  <path d="M190 150 L200 150" stroke="#333333" stroke-width="2" stroke-dasharray="4 2"/>
  <path d="M190 130 L200 130" stroke="#333333" stroke-width="2" stroke-dasharray="4 2"/>
  <path d="M190 170 L200 170" stroke="#333333" stroke-width="2" stroke-dasharray="4 2"/>
  
  <!-- Designer figure in center bottom -->
  <circle cx="200" y="245" r="15" fill="#007AFF"/>
  <circle cx="200" y="225" r="8" fill="#FFFFFF"/>
  
  <!-- Tool Icons -->
  <circle cx="60" y="100" r="15" fill="#F5F5F7" stroke="#E0E0E0"/>
  <text x="53" y="105" font-family="Arial, sans-serif" font-size="12" fill="#333333">Ai</text>
  
  <circle cx="60" y="140" r="15" fill="#F5F5F7" stroke="#E0E0E0"/>
  <text x="52" y="145" font-family="Arial, sans-serif" font-size="12" fill="#333333">Ps</text>
  
  <circle cx="60" y="180" r="15" fill="#F5F5F7" stroke="#E0E0E0"/>
  <text x="53" y="185" font-family="Arial, sans-serif" font-size="12" fill="#333333">Fg</text>
  
  <circle cx="340" y="100" r="15" fill="#F5F5F7" stroke="#E0E0E0"/>
  <text x="334" y="105" font-family="Arial, sans-serif" font-size="12" fill="#333333">JS</text>
  
  <circle cx="340" y="140" r="15" fill="#F5F5F7" stroke="#E0E0E0"/>
  <text x="329" y="145" font-family="Arial, sans-serif" font-size="10" fill="#333333">CSS</text>
  
  <circle cx="340" y="180" r="15" fill="#F5F5F7" stroke="#E0E0E0"/>
  <text x="328" y="185" font-family="Arial, sans-serif" font-size="10" fill="#333333">HTML</text>
  
  <!-- Connecting arrows to designer -->
  <path d="M75 140 L100 140" stroke="#007AFF" stroke-width="1.5" stroke-linecap="round" stroke-linejoin="round"/>
  <path d="M325 140 L300 140" stroke="#5E5CE6" stroke-width="1.5" stroke-linecap="round" stroke-linejoin="round"/>
  
  <!-- Decorative elements -->
  <circle cx="320" y="50" r="10" fill="#FF9500" opacity="0.6"/>
  <circle cx="80" y="50" r="10" fill="#FF2D55" opacity="0.6"/>
  <circle cx="320" y="250" r="10" fill="#5E5CE6" opacity="0.6"/>
  <circle cx="80" y="250" r="10" fill="#007AFF" opacity="0.6"/>
  
  <!-- Gradients definitions -->
  <defs>
    <linearGradient id="paint0_linear" x1="0" y1="0" x2="400" y2="300" gradientUnits="userSpaceOnUse">
      <stop offset="0" stop-color="#F5F5F7"/>
      <stop offset="1" stop-color="#E6E6EA"/>
    </linearGradient>
  </defs>
</svg> 